# xmcd
# 
# Track frame offsets:
#     150
#     15222
#     29703
#     43252
#     55606
#     66692
#     84751
#     95790
#     124320
#     137534
#     158517
#     169125
#     178830
#     196787
#     212489
#     230168
#     252268
#     263267
#     276959
#     293660
# 
# Disc length: 4211
# 
# Revision: 0
# Processed by: cddbd v1.5.2PL0 Copyright (c) Steve Scherf et al.
# Submitted via: fre:ac v1.0.31
# 
DISCID=1a107114
DTITLE=The Dubliners - Whiskey In Tha Jar [CD 1)
DYEAR=0
DGENRE=Country
TTITLE0=Seven Drunken Nights
TTITLE1=The Black Velvet Band
TTITLE2=The Rocky Road To Dublin
TTITLE3=The Wild Rover
TTITLE4=Finnegans Wake
TTITLE5=McAlpline's Fusiliers
TTITLE6=Whiskey In The Jar
TTITLE7=The Town I Loved So Well
TTITLE8=Dirty Old Town
TTITLE9=Song For Ireland
TTITLE10=Peggy Lettermore
TTITLE11=Preab San Ói
TTITLE12=The Fields Of Athenry
TTITLE13=Maids When You're Young Never Wed An Old Man
TTITLE14=Carrickfergus
TTITLE15=Four Green Fields
TTITLE16=Lord Of The Dance
TTITLE17=Molly Malone
TTITLE18=The Prodigal Son
TTITLE19=I'm A Man You Dont Meet Every Day
EXTD=
EXTT0=
EXTT1=
EXTT2=
EXTT3=
EXTT4=
EXTT5=
EXTT6=
EXTT7=
EXTT8=
EXTT9=
EXTT10=
EXTT11=
EXTT12=
EXTT13=
EXTT14=
EXTT15=
EXTT16=
EXTT17=
EXTT18=
EXTT19=
PLAYORDER=
